HIERARCHY
ROOT hip
{
	OFFSET 0.000000 0.000000 0.000000 
	CHANNELS 6 Xposition Yposition Zposition Xrotation Zrotation Yrotation
	JOINT abdomen
	{
		OFFSET 0.000000 3.402643 0.000000 
		CHANNELS 3 Xrotation Zrotation Yrotation
		JOINT chest
		{
			OFFSET 0.000000 8.438565 -0.680529 
			CHANNELS 3 Xrotation Zrotation Yrotation
			JOINT neck
			{
				OFFSET 0.000000 10.207942 -0.272212 
				CHANNELS 3 Xrotation Zrotation Yrotation
				JOINT head
				{
					OFFSET 0.000000 3.130431 0.000000 
					CHANNELS 3 Xrotation Zrotation Yrotation
					End Site
					{
						OFFSET 0.000000 3.130435 0.000000 
					}
				}
			}
			JOINT lCollar
			{
				OFFSET 3.470700 6.669187 -0.816635 
				CHANNELS 3 Yrotation Zrotation Xrotation
				JOINT lShldr
				{
					OFFSET 3.198488 0.000000 0.000000 
					CHANNELS 3 Zrotation Yrotation Xrotation
					JOINT lForeArm
					{
						OFFSET 10.139888 0.000000 0.000000 
						CHANNELS 3 Yrotation Zrotation Xrotation
						JOINT lHand
						{
							OFFSET 8.370511 0.000000 0.000000 
							CHANNELS 3 Zrotation Yrotation Xrotation
							End Site
							{
								OFFSET 4.083176 0.000000 0.000000 
							}
						}
					}
				}
			}
			JOINT rCollar
			{
				OFFSET -3.470700 6.669187 -0.816635 
				CHANNELS 3 Yrotation Zrotation Xrotation
				JOINT rShldr
				{
					OFFSET -3.198488 0.000000 0.000000 
					CHANNELS 3 Zrotation Yrotation Xrotation
					JOINT rForeArm
					{
						OFFSET -10.139888 0.000000 0.000000 
						CHANNELS 3 Yrotation Zrotation Xrotation
						JOINT rHand
						{
							OFFSET -8.370511 0.000000 0.000000 
							CHANNELS 3 Zrotation Yrotation Xrotation
							End Site
							{
								OFFSET -4.083176 0.000000 0.000000 
							}
						}
					}
				}
			}
		}
	}
	JOINT lThigh
	{
		OFFSET 5.308129 -1.633274 1.361059 
		CHANNELS 3 Xrotation Zrotation Yrotation
		JOINT lShin
		{
			OFFSET -2.041588 -20.007561 0.000000 
			CHANNELS 3 Xrotation Zrotation Yrotation
			JOINT lFoot
			{
				OFFSET 0.000000 -19.190928 -1.224953 
				CHANNELS 3 Xrotation Yrotation Zrotation
				End Site
				{
					OFFSET 0.000000 -2.449906 4.627600 
				}
			}
		}
	}
	JOINT rThigh
	{
		OFFSET -5.308129 -1.633274 1.361059 
		CHANNELS 3 Xrotation Zrotation Yrotation
		JOINT rShin
		{
			OFFSET 2.041588 -20.007561 0.000000 
			CHANNELS 3 Xrotation Zrotation Yrotation
			JOINT rFoot
			{
				OFFSET 0.000000 -19.190928 -1.224953 
				CHANNELS 3 Xrotation Yrotation Zrotation
				End Site
				{
					OFFSET 0.000000 -2.449906 4.627600 
				}
			}
		}
	}
}
MOTION
Frames: 6
Frame Time: 0.011111
21.834557 53.030621 -33.961239 5.268708 -0.646307 -21.414021 17.623081 1.181357 4.571961 -26.336250 -0.628277 1.200140 -23.270515 7.663368 4.884535 39.090370 -6.609291 11.010880 -0.779411 -2.542641 1.133673 -67.551682 -25.408308 44.614967 -55.831535 8.794679 10.573206 8.524705 12.647240 -10.432997 -6.215510 -0.569171 2.783673 72.243530 15.817366 35.487000 55.030514 -8.684310 10.239926 -8.534408 -12.637552 55.960796 -6.538885 8.512280 -14.967663 23.873749 -5.634789 -4.041824 -36.530613 17.284794 9.553337 -3.017016 -4.716239 24.236174 11.119170 5.962255 2.277379 -16.378727 -28.225588 -2.851560 
21.822840 53.042034 -33.966476 5.300190 -0.626971 -21.295933 17.635733 1.211101 4.478253 -26.424131 -0.600358 1.168910 -23.025110 7.812450 4.845152 38.528500 -6.911476 10.886706 -0.779411 -2.542641 1.133673 -67.476692 -25.327667 44.907810 -56.170708 8.845363 10.725748 8.524705 12.647240 -9.749402 -6.215510 -0.569171 2.783673 72.234406 15.827835 35.222672 55.105011 -8.699100 10.280543 -8.534408 -12.637552 55.199078 -6.619312 8.553327 -14.750641 23.853039 -5.634798 -4.059502 -36.403191 17.215326 9.443426 -2.936996 -4.752770 24.130606 10.886229 5.962882 2.236777 -16.286119 -28.236866 -2.818696 
21.815746 53.058067 -33.960926 5.303326 -0.615636 -21.206772 17.645525 1.214454 4.469565 -26.482775 -0.619615 1.161869 -22.892111 7.869073 4.823293 38.189835 -6.989903 10.835336 -0.779411 -2.542641 1.133673 -67.380188 -25.295179 45.151802 -56.404140 8.878866 10.825905 8.524705 12.647240 -9.231826 -6.215510 -0.569171 2.783673 72.190117 15.772348 35.464184 55.326393 -8.730322 10.370342 -8.534408 -12.637552 54.320168 -6.657029 8.581532 -14.583429 23.903517 -5.634947 -4.054205 -36.281746 17.104799 9.314753 -2.790885 -4.831731 24.016756 10.606408 5.964763 2.202595 -16.300362 -28.221621 -2.805474 
21.811432 53.075333 -33.955685 5.305402 -0.601600 -21.146662 17.664251 1.236237 4.498430 -26.512142 -0.666539 1.177064 -22.880196 7.832263 4.841006 38.072285 -6.840899 10.894094 -0.779411 -2.542641 1.133673 -67.292679 -25.282532 45.327446 -56.584606 8.904342 10.904637 8.524705 12.647240 -8.880261 -6.215510 -0.569171 2.783673 72.099632 15.886778 35.645847 55.346870 -8.730184 10.372156 -8.534408 -12.637552 53.372902 -6.668774 8.583167 -14.681626 23.963648 -5.635362 -4.059558 -36.304329 16.933365 9.250038 -2.652211 -4.906445 23.961634 10.299455 5.972439 2.145638 -16.324211 -28.252096 -2.827361 
21.808348 53.082424 -33.948902 5.325029 -0.607898 -21.108902 17.654594 1.304936 4.510280 -26.512306 -0.735548 1.174587 -22.920732 7.866328 4.832045 38.052021 -6.830986 10.902193 -0.779411 -2.542641 1.133673 -67.205956 -25.250364 45.522633 -56.849323 8.936830 11.007947 8.524705 12.647240 -8.362684 -6.215510 -0.569171 2.783673 71.990280 16.139708 35.893921 55.189224 -8.710621 10.314758 -8.534408 -12.637552 52.396343 -6.713920 8.570374 -14.750762 24.063610 -5.635747 -4.079095 -36.630993 16.806005 9.363237 -2.525537 -4.974450 23.925568 10.005556 5.971632 2.119142 -16.157900 -28.310652 -2.748797 
21.803722 53.082123 -33.942734 5.354166 -0.650512 -21.065189 17.655384 1.431298 4.530737 -26.502781 -0.833889 1.175068 -22.996300 8.005531 4.787785 38.120445 -6.991172 10.832842 -0.779411 -2.542641 1.133673 -67.146965 -25.258198 45.522545 -56.849159 8.937449 11.017691 8.524705 12.647240 -8.372450 -6.215510 -0.569171 2.783673 71.848053 16.355864 36.299023 55.030334 -8.684928 10.249670 -8.534408 -12.637552 51.292828 -6.805046 8.660967 -14.514359 24.117855 -5.615504 -4.089210 -36.430267 16.763361 9.234525 -2.391374 -4.969208 23.881456 9.776225 5.974763 2.079682 -15.947745 -28.319698 -2.653510 
